%FSLAX24Y24*%
%MOIN*%
G70*
G01*
G75*
G04 Layer_Color=8388736*
%ADD10C,0.0100*%
%ADD11R,0.0591X0.0591*%
%ADD12C,0.0591*%
%ADD13O,0.0394X0.0787*%
%ADD14O,0.0394X0.0787*%
%ADD15R,0.0630X0.0630*%
%ADD16C,0.0630*%
%ADD17C,0.0551*%
%ADD18R,0.0591X0.0591*%
%ADD19R,0.0630X0.0630*%
%ADD20C,0.0500*%
%ADD21C,0.0500*%
%ADD22C,0.0079*%
%ADD23C,0.0098*%
%ADD24C,0.0236*%
%ADD25R,0.0671X0.0671*%
%ADD26C,0.0671*%
%ADD27O,0.0474X0.0867*%
%ADD28O,0.0474X0.0867*%
%ADD29R,0.0710X0.0710*%
%ADD30C,0.0710*%
%ADD31C,0.0631*%
%ADD32R,0.0671X0.0671*%
%ADD33R,0.0710X0.0710*%
%ADD34C,0.0580*%
D25*
X33100Y26600D02*
D03*
X30600Y32200D02*
D03*
X32600Y29400D02*
D03*
D26*
X33100Y27600D02*
D03*
X30600Y31200D02*
D03*
Y30200D02*
D03*
X44400Y33900D02*
D03*
X30600Y27600D02*
D03*
X40700Y23000D02*
D03*
X33600Y29400D02*
D03*
X34600D02*
D03*
X35600D02*
D03*
X36600D02*
D03*
X37600D02*
D03*
X38600D02*
D03*
X32600Y32400D02*
D03*
X33600D02*
D03*
X34600D02*
D03*
X35600D02*
D03*
X36600D02*
D03*
X37600D02*
D03*
X38600D02*
D03*
D27*
X38400Y24000D02*
D03*
X37900D02*
D03*
X32400Y24700D02*
D03*
X31900D02*
D03*
D28*
X37400Y24000D02*
D03*
X31400Y24700D02*
D03*
D29*
X42900Y23200D02*
D03*
Y26500D02*
D03*
D30*
X43900Y23200D02*
D03*
X44900D02*
D03*
X45600Y30800D02*
D03*
Y29800D02*
D03*
X42200Y30800D02*
D03*
Y29800D02*
D03*
X43900Y26500D02*
D03*
X44900D02*
D03*
D31*
X36800Y33600D02*
D03*
X40800D02*
D03*
X35700Y27200D02*
D03*
Y23200D02*
D03*
X34600Y27200D02*
D03*
Y23200D02*
D03*
X35600Y33600D02*
D03*
X31600D02*
D03*
D32*
X43400Y33900D02*
D03*
X31600Y27600D02*
D03*
X39700Y23000D02*
D03*
D33*
X45600Y31800D02*
D03*
X42200D02*
D03*
D34*
X38300Y26500D02*
D03*
X33300Y23300D02*
D03*
X35600Y34500D02*
D03*
X46100Y33600D02*
D03*
M02*
