%FSLAX24Y24*%
%MOIN*%
G70*
G01*
G75*
G04 Layer_Color=65535*
%ADD10C,0.0100*%
%ADD11R,0.0591X0.0591*%
%ADD12C,0.0591*%
%ADD13O,0.0394X0.0787*%
%ADD14O,0.0394X0.0787*%
%ADD15R,0.0630X0.0630*%
%ADD16C,0.0630*%
%ADD17C,0.0551*%
%ADD18R,0.0591X0.0591*%
%ADD19R,0.0630X0.0630*%
%ADD20C,0.0500*%
%ADD21C,0.0500*%
%ADD22C,0.0079*%
%ADD23C,0.0098*%
%ADD24C,0.0236*%
D10*
X40600Y23900D02*
X41000D01*
X40800Y24100D02*
Y23700D01*
X32900Y28500D02*
X33300D01*
X33100Y28700D02*
Y28300D01*
X30300Y26700D02*
X30700D01*
X30500Y26900D02*
Y26500D01*
X33900Y27900D02*
X34100D01*
X34000D01*
Y28500D01*
X33900Y28400D01*
X34400Y28500D02*
X34800D01*
Y28400D01*
X34400Y28000D01*
Y27900D01*
X35000Y28500D02*
Y28100D01*
X35200Y27900D01*
X35400Y28100D01*
Y28500D01*
X37340Y25460D02*
Y25860D01*
X37240Y25960D01*
X37040D01*
X36940Y25860D01*
Y25460D01*
X37040Y25360D01*
X37240D01*
X37140Y25560D02*
X37340Y25360D01*
X37240D02*
X37340Y25460D01*
X37940Y25960D02*
X37740Y25860D01*
X37540Y25660D01*
Y25460D01*
X37640Y25360D01*
X37840D01*
X37940Y25460D01*
Y25560D01*
X37840Y25660D01*
X37540D01*
X46300Y23950D02*
X46700D01*
X46800Y24050D01*
Y24250D01*
X46700Y24350D01*
X46300D01*
X46200Y24250D01*
Y24050D01*
X46400Y24150D02*
X46200Y23950D01*
Y24050D02*
X46300Y23950D01*
X46200Y23750D02*
Y23550D01*
Y23650D01*
X46800D01*
X46700Y23750D01*
X31800Y23300D02*
Y23700D01*
X31700Y23800D01*
X31500D01*
X31400Y23700D01*
Y23300D01*
X31500Y23200D01*
X31700D01*
X31600Y23400D02*
X31800Y23200D01*
X31700D02*
X31800Y23300D01*
X32400Y23800D02*
X32000D01*
Y23500D01*
X32200Y23600D01*
X32300D01*
X32400Y23500D01*
Y23300D01*
X32300Y23200D01*
X32100D01*
X32000Y23300D01*
X37800Y34200D02*
Y34800D01*
X38100D01*
X38200Y34700D01*
Y34500D01*
X38100Y34400D01*
X37800D01*
X38000D02*
X38200Y34200D01*
X38400Y34700D02*
X38500Y34800D01*
X38700D01*
X38800Y34700D01*
Y34600D01*
X38700Y34500D01*
X38600D01*
X38700D01*
X38800Y34400D01*
Y34300D01*
X38700Y34200D01*
X38500D01*
X38400Y34300D01*
X29300Y29700D02*
X29200Y29600D01*
Y29400D01*
X29300Y29300D01*
X29700D01*
X29800Y29400D01*
Y29600D01*
X29700Y29700D01*
X29800Y30000D02*
Y30200D01*
X29700Y30300D01*
X29500D01*
X29400Y30200D01*
Y30000D01*
X29500Y29900D01*
X29700D01*
X29800Y30000D01*
Y30500D02*
X29400D01*
Y30800D01*
X29500Y30899D01*
X29800D01*
X29300Y31199D02*
X29400D01*
Y31099D01*
Y31299D01*
Y31199D01*
X29700D01*
X29800Y31299D01*
X29400Y31599D02*
X29800D01*
X29600D01*
X29500Y31699D01*
X29400Y31799D01*
Y31899D01*
X29800Y32299D02*
Y32499D01*
X29700Y32599D01*
X29500D01*
X29400Y32499D01*
Y32299D01*
X29500Y32199D01*
X29700D01*
X29800Y32299D01*
Y32799D02*
Y32999D01*
Y32899D01*
X29200D01*
Y32799D01*
X42600Y34700D02*
Y35300D01*
X42800Y35100D01*
X43000Y35300D01*
Y34700D01*
X43300D02*
X43500D01*
X43600Y34800D01*
Y35000D01*
X43500Y35100D01*
X43300D01*
X43200Y35000D01*
Y34800D01*
X43300Y34700D01*
X43900Y35200D02*
Y35100D01*
X43800D01*
X44000D01*
X43900D01*
Y34800D01*
X44000Y34700D01*
X44399D02*
X44599D01*
X44699Y34800D01*
Y35000D01*
X44599Y35100D01*
X44399D01*
X44299Y35000D01*
Y34800D01*
X44399Y34700D01*
X44899Y35100D02*
Y34700D01*
Y34900D01*
X44999Y35000D01*
X45099Y35100D01*
X45199D01*
X30600Y29000D02*
X30200D01*
Y28700D01*
X30400Y28800D01*
X30500D01*
X30600Y28700D01*
Y28500D01*
X30500Y28400D01*
X30300D01*
X30200Y28500D01*
X30800Y29000D02*
Y28600D01*
X31000Y28400D01*
X31200Y28600D01*
Y29000D01*
X39100Y21500D02*
X39300D01*
X39200D01*
Y22100D01*
X39100Y22000D01*
X40000Y21500D02*
X39600D01*
X40000Y21900D01*
Y22000D01*
X39900Y22100D01*
X39700D01*
X39600Y22000D01*
X40200Y22100D02*
Y21700D01*
X40400Y21500D01*
X40600Y21700D01*
Y22100D01*
X41399D02*
X41599D01*
X41499D01*
Y21500D01*
X41399D01*
X41599D01*
X41899D02*
Y21900D01*
X42199D01*
X42299Y21800D01*
Y21500D01*
X36300Y27400D02*
X36900D01*
Y27100D01*
X36800Y27000D01*
X36600D01*
X36500Y27100D01*
Y27400D01*
Y27200D02*
X36300Y27000D01*
Y26400D02*
Y26800D01*
X36700Y26400D01*
X36800D01*
X36900Y26500D01*
Y26700D01*
X36800Y26800D01*
X33400Y24800D02*
X34000D01*
Y24500D01*
X33900Y24400D01*
X33700D01*
X33600Y24500D01*
Y24800D01*
Y24600D02*
X33400Y24400D01*
Y24200D02*
Y24000D01*
Y24100D01*
X34000D01*
X33900Y24200D01*
X47100Y32400D02*
X47500D01*
X47600Y32500D01*
Y32700D01*
X47500Y32800D01*
X47100D01*
X47000Y32700D01*
Y32500D01*
X47200Y32600D02*
X47000Y32400D01*
Y32500D02*
X47100Y32400D01*
X47000Y31900D02*
X47600D01*
X47300Y32200D01*
Y31800D01*
X42100Y33300D02*
Y33700D01*
X42000Y33800D01*
X41800D01*
X41700Y33700D01*
Y33300D01*
X41800Y33200D01*
X42000D01*
X41900Y33400D02*
X42100Y33200D01*
X42000D02*
X42100Y33300D01*
X42300Y33700D02*
X42400Y33800D01*
X42600D01*
X42700Y33700D01*
Y33600D01*
X42600Y33500D01*
X42500D01*
X42600D01*
X42700Y33400D01*
Y33300D01*
X42600Y33200D01*
X42400D01*
X42300Y33300D01*
X46300Y27200D02*
X46700D01*
X46800Y27300D01*
Y27500D01*
X46700Y27600D01*
X46300D01*
X46200Y27500D01*
Y27300D01*
X46400Y27400D02*
X46200Y27200D01*
Y27300D02*
X46300Y27200D01*
X46200Y26600D02*
Y27000D01*
X46600Y26600D01*
X46700D01*
X46800Y26700D01*
Y26900D01*
X46700Y27000D01*
X40400Y31300D02*
X39900D01*
X39800Y31200D01*
Y31000D01*
X39900Y30900D01*
X40400D01*
X39800Y30300D02*
Y30700D01*
X40200Y30300D01*
X40300D01*
X40400Y30400D01*
Y30600D01*
X40300Y30700D01*
X32500Y34300D02*
Y34900D01*
X32800D01*
X32900Y34800D01*
Y34600D01*
X32800Y34500D01*
X32500D01*
X32700D02*
X32900Y34300D01*
X33400D02*
Y34900D01*
X33100Y34600D01*
X33500D01*
D22*
X38707Y23370D02*
G03*
X37093Y23370I-807J630D01*
G01*
X32707Y24070D02*
G03*
X31093Y24070I-807J630D01*
G01*
X31722Y30650D02*
G03*
X31722Y31150I0J250D01*
G01*
X32600Y28100D02*
X33600D01*
Y26100D02*
Y28100D01*
X32600Y26100D02*
X33600D01*
X32600D02*
Y28100D01*
X37117Y23370D02*
X38683D01*
X41794Y24125D02*
X46006D01*
X41794Y24322D02*
X46006D01*
X41794Y22472D02*
X46006D01*
X41794D02*
Y24322D01*
X46006Y22472D02*
Y24322D01*
X31117Y24070D02*
X32683D01*
X37600Y33200D02*
Y34000D01*
X40000D01*
Y33200D02*
Y34000D01*
X37600Y33200D02*
X40000D01*
X37200Y33600D02*
X37600D01*
X40000D02*
X40400D01*
X30100Y29700D02*
Y32700D01*
Y29700D02*
X31100D01*
Y32700D01*
X30100D02*
X31100D01*
X44900Y33400D02*
Y34400D01*
X42900Y33400D02*
X44900D01*
X42900D02*
Y34400D01*
X44900D01*
X30100Y27100D02*
Y28100D01*
X32100D01*
Y27100D02*
Y28100D01*
X30100Y27100D02*
X32100D01*
X41200Y22500D02*
Y23500D01*
X39200Y22500D02*
X41200D01*
X39200D02*
Y23500D01*
X41200D01*
X35300Y26400D02*
X36100D01*
Y24000D02*
Y26400D01*
X35300Y24000D02*
X36100D01*
X35300D02*
Y26400D01*
X35700D02*
Y26800D01*
Y23600D02*
Y24000D01*
X34200Y26400D02*
X35000D01*
Y24000D02*
Y26400D01*
X34200Y24000D02*
X35000D01*
X34200D02*
Y26400D01*
X34600D02*
Y26800D01*
Y23600D02*
Y24000D01*
X46525Y28694D02*
Y32906D01*
X46722Y28694D02*
Y32906D01*
X44872Y28694D02*
Y32906D01*
X46722D01*
X44872Y28694D02*
X46722D01*
X43125Y28694D02*
Y32906D01*
X43322Y28694D02*
Y32906D01*
X41472Y28694D02*
Y32906D01*
X43322D01*
X41472Y28694D02*
X43322D01*
X41794Y27425D02*
X46006D01*
X41794Y27622D02*
X46006D01*
X41794Y25772D02*
X46006D01*
X41794D02*
Y27622D01*
X46006Y25772D02*
Y27622D01*
X31722Y29857D02*
X39478D01*
X31722Y31943D02*
X39478D01*
X31722Y29857D02*
Y30650D01*
Y31150D02*
Y31943D01*
X39478Y29857D02*
Y31943D01*
X34800Y33200D02*
Y34000D01*
X32400Y33200D02*
X34800D01*
X32400D02*
Y34000D01*
X34800D01*
Y33600D02*
X35200D01*
X32000D02*
X32400D01*
D23*
X32137Y29400D02*
G03*
X32137Y29400I-49J0D01*
G01*
D24*
X32234Y30250D02*
G03*
X32234Y30250I-118J0D01*
G01*
M02*
